<svg width="346" height="721" viewBox="0 0 346 721" fill="none" xmlns="http://www.w3.org/2000/svg"><path xmlns="http://www.w3.org/2000/svg" d="M44.7293 555.545V538.549C44.7293 537.914 44.5707 537.466 44.2533 537.205C43.9547 536.925 43.5627 536.785 43.0773 536.785L43.6093 534.825C45.3267 534.825 46.4 535.506 46.8293 536.869C47.016 536.589 47.3147 536.262 47.7253 535.889C48.1547 535.515 48.6773 535.189 49.2933 534.909C49.928 534.629 50.6467 534.489 51.4493 534.489C52.5693 534.489 53.6147 534.787 54.5853 535.385C55.5747 535.963 56.368 536.813 56.9653 537.933C57.5627 539.034 57.8613 540.378 57.8613 541.965C57.8613 543.514 57.5627 544.877 56.9653 546.053C56.368 547.21 55.584 548.115 54.6133 548.769C53.6613 549.403 52.6253 549.721 51.5053 549.721C50.6467 549.721 49.844 549.553 49.0973 549.217C48.3507 548.862 47.7347 548.461 47.2493 548.013V555.545H44.7293ZM51.0013 547.481C52.2707 547.481 53.2973 546.986 54.0813 545.997C54.884 544.989 55.2853 543.673 55.2853 542.049C55.2853 540.929 55.08 539.967 54.6693 539.165C54.2773 538.362 53.7453 537.746 53.0733 537.317C52.42 536.887 51.692 536.673 50.8893 536.673C50.0867 536.673 49.3587 536.878 48.7053 537.289C48.0707 537.681 47.5853 538.11 47.2493 538.577V545.745C47.7347 546.249 48.2947 546.669 48.9293 547.005C49.564 547.322 50.2547 547.481 51.0013 547.481Z" fill="black"/></svg>