<svg width="346" height="721" viewBox="0 0 346 721" fill="none" xmlns="http://www.w3.org/2000/svg"><path xmlns="http://www.w3.org/2000/svg" d="M61.3692 549.385V528.665H63.8892V537.149C64.4119 536.383 65.0745 535.749 65.8772 535.245C66.6799 534.741 67.6225 534.489 68.7052 534.489C70.3479 534.489 71.5705 534.983 72.3732 535.973C73.1945 536.962 73.6052 538.269 73.6052 539.893V549.385H71.0852V540.173C71.0852 539.127 70.8425 538.287 70.3572 537.653C69.8719 537.018 69.1905 536.701 68.3132 536.701C67.4545 536.701 66.6332 537.009 65.8492 537.625C65.0839 538.222 64.4305 538.931 63.8892 539.753V549.385H61.3692Z" fill="black"/></svg>