<svg width="346" height="721" viewBox="0 0 346 721" fill="none" xmlns="http://www.w3.org/2000/svg"><path xmlns="http://www.w3.org/2000/svg" d="M83.5115 549.721C82.2982 549.721 81.1969 549.413 80.2075 548.797C79.2182 548.181 78.4249 547.313 77.8275 546.193C77.2489 545.054 76.9595 543.719 76.9595 542.189C76.9595 540.733 77.2489 539.426 77.8275 538.269C78.4249 537.111 79.2369 536.197 80.2635 535.525C81.3089 534.834 82.5035 534.489 83.8475 534.489C84.6875 534.489 85.4435 534.638 86.1155 534.937C86.8062 535.217 87.4035 535.571 87.9075 536.001V534.825H90.2035V545.857C90.2035 546.566 90.3715 547.033 90.7075 547.257C91.0622 547.462 91.4449 547.565 91.8555 547.565L91.3235 549.525C89.5315 549.525 88.4489 548.797 88.0755 547.341C87.6462 547.938 87.0582 548.489 86.3115 548.993C85.5835 549.478 84.6502 549.721 83.5115 549.721ZM84.0715 547.481C84.7809 547.481 85.4529 547.313 86.0875 546.977C86.7222 546.622 87.2542 546.183 87.6835 545.661V537.849C87.1795 537.494 86.6195 537.214 86.0035 537.009C85.4062 536.785 84.7715 536.673 84.0995 536.673C83.2035 536.673 82.4102 536.906 81.7195 537.373C81.0475 537.821 80.5155 538.455 80.1235 539.277C79.7315 540.079 79.5355 541.022 79.5355 542.105C79.5355 543.15 79.7315 544.083 80.1235 544.905C80.5155 545.707 81.0569 546.342 81.7475 546.809C82.4382 547.257 83.2129 547.481 84.0715 547.481Z" fill="black"/></svg>