<svg width="346" height="721" viewBox="0 0 346 721" fill="none" xmlns="http://www.w3.org/2000/svg"><path xmlns="http://www.w3.org/2000/svg" d="M95.2208 549.385V534.825H97.6568V537.261C98.1794 536.477 98.8421 535.823 99.6448 535.301C100.466 534.759 101.437 534.489 102.557 534.489C104.199 534.489 105.422 534.983 106.225 535.973C107.046 536.962 107.457 538.269 107.457 539.893V549.385H104.937V540.173C104.937 539.127 104.685 538.287 104.181 537.653C103.695 537.018 103.014 536.701 102.137 536.701C101.278 536.701 100.466 537.009 99.7008 537.625C98.9354 538.222 98.2821 538.931 97.7408 539.753V549.385H95.2208Z" fill="black"/></svg>