<svg width="346" height="721" viewBox="0 0 346 721" fill="none" xmlns="http://www.w3.org/2000/svg"><path xmlns="http://www.w3.org/2000/svg" d="M124.615 549.721C122.524 549.721 120.863 549.058 119.631 547.733C118.418 546.389 117.811 544.513 117.811 542.105C117.811 540.649 118.082 539.351 118.623 538.213C119.183 537.055 119.958 536.15 120.947 535.497C121.936 534.825 123.084 534.489 124.391 534.489C125.791 534.489 126.948 534.797 127.863 535.413C128.796 536.01 129.496 536.822 129.963 537.849C130.43 538.875 130.663 540.005 130.663 541.237C130.663 541.89 130.635 542.525 130.579 543.141H120.387C120.555 544.503 121.031 545.567 121.815 546.333C122.599 547.098 123.635 547.481 124.923 547.481C125.763 547.481 126.519 547.397 127.191 547.229C127.863 547.042 128.507 546.809 129.123 546.529L129.711 548.685C129.039 548.983 128.283 549.226 127.443 549.413C126.603 549.618 125.66 549.721 124.615 549.721ZM120.359 541.097H128.339C128.339 539.678 127.984 538.586 127.275 537.821C126.566 537.055 125.586 536.673 124.335 536.673C123.252 536.673 122.356 537.055 121.647 537.821C120.938 538.567 120.508 539.659 120.359 541.097Z" fill="black"/></svg>