<svg width="346" height="721" viewBox="0 0 346 721" fill="none" xmlns="http://www.w3.org/2000/svg"><path xmlns="http://www.w3.org/2000/svg" d="M173.554 549.721C172.341 549.721 171.24 549.413 170.25 548.797C169.261 548.181 168.468 547.313 167.87 546.193C167.292 545.054 167.002 543.719 167.002 542.189C167.002 540.733 167.292 539.426 167.87 538.269C168.468 537.111 169.28 536.197 170.306 535.525C171.352 534.834 172.546 534.489 173.89 534.489C174.73 534.489 175.486 534.638 176.158 534.937C176.849 535.217 177.447 535.571 177.951 536.001V534.825H180.246V545.857C180.246 546.566 180.414 547.033 180.75 547.257C181.105 547.462 181.488 547.565 181.898 547.565L181.367 549.525C179.575 549.525 178.492 548.797 178.118 547.341C177.689 547.938 177.101 548.489 176.354 548.993C175.626 549.478 174.693 549.721 173.554 549.721ZM174.114 547.481C174.824 547.481 175.496 547.313 176.13 546.977C176.765 546.622 177.297 546.183 177.726 545.661V537.849C177.222 537.494 176.662 537.214 176.046 537.009C175.449 536.785 174.814 536.673 174.142 536.673C173.246 536.673 172.453 536.906 171.762 537.373C171.09 537.821 170.558 538.455 170.166 539.277C169.774 540.079 169.578 541.022 169.578 542.105C169.578 543.15 169.774 544.083 170.166 544.905C170.558 545.707 171.1 546.342 171.79 546.809C172.481 547.257 173.256 547.481 174.114 547.481Z" fill="black"/></svg>