<svg width="346" height="721" viewBox="0 0 346 721" fill="none" xmlns="http://www.w3.org/2000/svg"><path xmlns="http://www.w3.org/2000/svg" d="M185.264 549.385V534.825H187.7V537.261C188.222 536.477 188.885 535.823 189.688 535.301C190.509 534.759 191.48 534.489 192.6 534.489C194.242 534.489 195.465 534.983 196.268 535.973C197.089 536.962 197.5 538.269 197.5 539.893V549.385H194.98V540.173C194.98 539.127 194.728 538.287 194.224 537.653C193.738 537.018 193.057 536.701 192.18 536.701C191.321 536.701 190.509 537.009 189.744 537.625C188.978 538.222 188.325 538.931 187.784 539.753V549.385H185.264Z" fill="black"/></svg>