<svg width="346" height="721" viewBox="0 0 346 721" fill="none" xmlns="http://www.w3.org/2000/svg"><path xmlns="http://www.w3.org/2000/svg" d="M207.182 555.881C206.323 555.881 205.483 555.778 204.662 555.573C203.859 555.367 203.141 555.059 202.506 554.649L203.43 552.465C203.878 552.819 204.401 553.109 204.998 553.333C205.595 553.575 206.323 553.697 207.182 553.697C208.507 553.697 209.543 553.342 210.29 552.633C211.055 551.942 211.438 550.831 211.438 549.301V547.509C211.065 547.957 210.523 548.386 209.814 548.797C209.123 549.189 208.293 549.385 207.322 549.385C206.221 549.385 205.175 549.105 204.186 548.545C203.197 547.966 202.394 547.126 201.778 546.025C201.162 544.923 200.854 543.598 200.854 542.049C200.854 540.593 201.153 539.295 201.75 538.157C202.366 537.018 203.187 536.122 204.214 535.469C205.241 534.815 206.37 534.489 207.602 534.489C208.423 534.489 209.17 534.629 209.842 534.909C210.514 535.189 211.093 535.534 211.578 535.945V534.825H213.874V549.049C213.874 550.654 213.594 551.961 213.034 552.969C212.474 553.977 211.69 554.714 210.682 555.181C209.693 555.647 208.526 555.881 207.182 555.881ZM207.882 547.145C208.629 547.145 209.301 546.977 209.898 546.641C210.495 546.305 210.981 545.913 211.354 545.465V537.849C210.943 537.55 210.449 537.279 209.87 537.037C209.291 536.794 208.619 536.673 207.854 536.673C207.089 536.673 206.37 536.878 205.698 537.289C205.026 537.699 204.475 538.297 204.046 539.081C203.635 539.846 203.43 540.789 203.43 541.909C203.43 542.973 203.635 543.897 204.046 544.681C204.475 545.465 205.026 546.071 205.698 546.501C206.37 546.93 207.098 547.145 207.882 547.145Z" fill="black"/></svg>