<svg width="346" height="721" viewBox="0 0 346 721" fill="none" xmlns="http://www.w3.org/2000/svg"><path xmlns="http://www.w3.org/2000/svg" d="M7.62277 582.721C6.26011 582.721 5.01877 582.543 3.89877 582.189C2.77877 581.815 1.83611 581.33 1.07077 580.733L2.41477 578.493C3.08677 579.053 3.84277 579.51 4.68277 579.865C5.52277 580.219 6.50277 580.397 7.62277 580.397C8.96677 580.397 10.0308 580.117 10.8148 579.557C11.5988 578.997 11.9908 578.241 11.9908 577.289C11.9908 576.747 11.8788 576.271 11.6548 575.861C11.4308 575.431 10.9921 575.021 10.3388 574.629C9.70411 574.218 8.76144 573.779 7.51077 573.313C6.16677 572.79 5.09344 572.267 4.29077 571.745C3.48811 571.203 2.90944 570.597 2.55477 569.925C2.21877 569.234 2.05077 568.422 2.05077 567.489C2.05077 566.555 2.30277 565.715 2.80677 564.969C3.32944 564.203 4.08544 563.597 5.07477 563.149C6.08277 562.682 7.29611 562.449 8.71477 562.449C9.87211 562.449 10.9081 562.57 11.8228 562.813C12.7561 563.037 13.6614 563.363 14.5388 563.793L13.5588 566.061C12.9241 565.687 12.1774 565.379 11.3188 565.137C10.4788 564.875 9.59211 564.745 8.65877 564.745C7.42677 564.745 6.45611 564.987 5.74677 565.473C5.03744 565.958 4.68277 566.583 4.68277 567.349C4.68277 567.834 4.78544 568.263 4.99077 568.637C5.19611 569.01 5.59744 569.374 6.19477 569.729C6.81077 570.083 7.72544 570.485 8.93877 570.933C10.3948 571.474 11.5428 572.043 12.3828 572.641C13.2414 573.238 13.8481 573.891 14.2028 574.601C14.5574 575.291 14.7348 576.085 14.7348 576.981C14.7348 578.194 14.4268 579.23 13.8108 580.089C13.2134 580.947 12.3734 581.601 11.2908 582.049C10.2268 582.497 9.00411 582.721 7.62277 582.721Z" fill="black"/></svg>