<svg width="346" height="721" viewBox="0 0 346 721" fill="none" xmlns="http://www.w3.org/2000/svg"><path xmlns="http://www.w3.org/2000/svg" d="M23.9568 582.721C22.7435 582.721 21.6422 582.413 20.6528 581.797C19.6635 581.181 18.8702 580.313 18.2728 579.193C17.6942 578.054 17.4048 576.719 17.4048 575.189C17.4048 573.733 17.6942 572.426 18.2728 571.269C18.8702 570.111 19.6822 569.197 20.7088 568.525C21.7542 567.834 22.9488 567.489 24.2928 567.489C25.1328 567.489 25.8888 567.638 26.5608 567.937C27.2515 568.217 27.8488 568.571 28.3528 569.001V567.825H30.6488V578.857C30.6488 579.566 30.8168 580.033 31.1528 580.257C31.5075 580.462 31.8902 580.565 32.3008 580.565L31.7688 582.525C29.9768 582.525 28.8942 581.797 28.5208 580.341C28.0915 580.938 27.5035 581.489 26.7568 581.993C26.0288 582.478 25.0955 582.721 23.9568 582.721ZM24.5168 580.481C25.2262 580.481 25.8982 580.313 26.5328 579.977C27.1675 579.622 27.6995 579.183 28.1288 578.661V570.849C27.6248 570.494 27.0648 570.214 26.4488 570.009C25.8515 569.785 25.2168 569.673 24.5448 569.673C23.6488 569.673 22.8555 569.906 22.1648 570.373C21.4928 570.821 20.9608 571.455 20.5688 572.277C20.1768 573.079 19.9808 574.022 19.9808 575.105C19.9808 576.15 20.1768 577.083 20.5688 577.905C20.9608 578.707 21.5022 579.342 22.1928 579.809C22.8835 580.257 23.6582 580.481 24.5168 580.481Z" fill="black"/></svg>