<svg width="346" height="721" viewBox="0 0 346 721" fill="none" xmlns="http://www.w3.org/2000/svg"><path xmlns="http://www.w3.org/2000/svg" d="M35.6661 582.385V567.825H38.1021V570.989C38.3448 570.373 38.6714 569.803 39.0821 569.281C39.4928 568.739 40.0061 568.31 40.6221 567.993C41.2381 567.657 41.9568 567.489 42.7781 567.489C43.0581 567.489 43.3381 567.507 43.6181 567.545C43.8981 567.563 44.1314 567.601 44.3181 567.657L43.5621 570.261C43.2074 570.111 42.7874 570.037 42.3021 570.037C41.6114 570.037 40.9488 570.233 40.3141 570.625C39.6981 571.017 39.1848 571.623 38.7741 572.445C38.3821 573.266 38.1861 574.311 38.1861 575.581V582.385H35.6661Z" fill="black"/></svg>