<svg width="346" height="721" viewBox="0 0 346 721" fill="none" xmlns="http://www.w3.org/2000/svg"><path xmlns="http://www.w3.org/2000/svg" d="M51.574 582.721C50.3607 582.721 49.2594 582.413 48.27 581.797C47.2807 581.181 46.4874 580.313 45.89 579.193C45.3114 578.054 45.022 576.719 45.022 575.189C45.022 573.733 45.3114 572.426 45.89 571.269C46.4874 570.111 47.2994 569.197 48.326 568.525C49.3714 567.834 50.566 567.489 51.91 567.489C52.75 567.489 53.506 567.638 54.178 567.937C54.8687 568.217 55.466 568.571 55.97 569.001V567.825H58.266V578.857C58.266 579.566 58.434 580.033 58.77 580.257C59.1247 580.462 59.5074 580.565 59.918 580.565L59.386 582.525C57.594 582.525 56.5114 581.797 56.138 580.341C55.7087 580.938 55.1207 581.489 54.374 581.993C53.646 582.478 52.7127 582.721 51.574 582.721ZM52.134 580.481C52.8434 580.481 53.5154 580.313 54.15 579.977C54.7847 579.622 55.3167 579.183 55.746 578.661V570.849C55.242 570.494 54.682 570.214 54.066 570.009C53.4687 569.785 52.834 569.673 52.162 569.673C51.266 569.673 50.4727 569.906 49.782 570.373C49.11 570.821 48.578 571.455 48.186 572.277C47.794 573.079 47.598 574.022 47.598 575.105C47.598 576.15 47.794 577.083 48.186 577.905C48.578 578.707 49.1194 579.342 49.81 579.809C50.5007 580.257 51.2754 580.481 52.134 580.481Z" fill="black"/></svg>