<svg width="346" height="721" viewBox="0 0 346 721" fill="none" xmlns="http://www.w3.org/2000/svg"><path xmlns="http://www.w3.org/2000/svg" d="M63.2833 582.385V561.665H65.8033V570.149C66.3259 569.383 66.9886 568.749 67.7913 568.245C68.5939 567.741 69.5366 567.489 70.6193 567.489C72.2619 567.489 73.4846 567.983 74.2873 568.973C75.1086 569.962 75.5193 571.269 75.5193 572.893V582.385H72.9993V573.173C72.9993 572.127 72.7566 571.287 72.2713 570.653C71.7859 570.018 71.1046 569.701 70.2273 569.701C69.3686 569.701 68.5473 570.009 67.7633 570.625C66.9979 571.222 66.3446 571.931 65.8033 572.753V582.385H63.2833Z" fill="black"/></svg>