<svg width="346" height="721" viewBox="0 0 346 721" fill="none" xmlns="http://www.w3.org/2000/svg"><path xmlns="http://www.w3.org/2000/svg" d="M106.951 582.721C104.86 582.721 103.199 582.058 101.967 580.733C100.754 579.389 100.147 577.513 100.147 575.105C100.147 573.649 100.418 572.351 100.959 571.213C101.519 570.055 102.294 569.15 103.283 568.497C104.272 567.825 105.42 567.489 106.727 567.489C108.127 567.489 109.284 567.797 110.199 568.413C111.132 569.01 111.832 569.822 112.299 570.849C112.766 571.875 112.999 573.005 112.999 574.237C112.999 574.89 112.971 575.525 112.915 576.141H102.723C102.891 577.503 103.367 578.567 104.151 579.333C104.935 580.098 105.971 580.481 107.259 580.481C108.099 580.481 108.855 580.397 109.527 580.229C110.199 580.042 110.843 579.809 111.459 579.529L112.047 581.685C111.375 581.983 110.619 582.226 109.779 582.413C108.939 582.618 107.996 582.721 106.951 582.721ZM102.695 574.097H110.675C110.675 572.678 110.32 571.586 109.611 570.821C108.902 570.055 107.922 569.673 106.671 569.673C105.588 569.673 104.692 570.055 103.983 570.821C103.274 571.567 102.844 572.659 102.695 574.097Z" fill="black"/></svg>