<svg width="346" height="721" viewBox="0 0 346 721" fill="none" xmlns="http://www.w3.org/2000/svg"><path xmlns="http://www.w3.org/2000/svg" d="M116.357 582.385V567.825H118.793V570.261C119.316 569.477 119.979 568.823 120.781 568.301C121.603 567.759 122.573 567.489 123.693 567.489C125.336 567.489 126.559 567.983 127.361 568.973C128.183 569.962 128.593 571.269 128.593 572.893V582.385H126.073V573.173C126.073 572.127 125.821 571.287 125.317 570.653C124.832 570.018 124.151 569.701 123.273 569.701C122.415 569.701 121.603 570.009 120.837 570.625C120.072 571.222 119.419 571.931 118.877 572.753V582.385H116.357Z" fill="black"/></svg>