<svg width="346" height="721" viewBox="0 0 346 721" fill="none" xmlns="http://www.w3.org/2000/svg"><path xmlns="http://www.w3.org/2000/svg" d="M138.276 588.881C137.417 588.881 136.577 588.778 135.756 588.573C134.953 588.367 134.234 588.059 133.6 587.649L134.524 585.465C134.972 585.819 135.494 586.109 136.092 586.333C136.689 586.575 137.417 586.697 138.276 586.697C139.601 586.697 140.637 586.342 141.384 585.633C142.149 584.942 142.532 583.831 142.532 582.301V580.509C142.158 580.957 141.617 581.386 140.908 581.797C140.217 582.189 139.386 582.385 138.416 582.385C137.314 582.385 136.269 582.105 135.28 581.545C134.29 580.966 133.488 580.126 132.872 579.025C132.256 577.923 131.948 576.598 131.948 575.049C131.948 573.593 132.246 572.295 132.844 571.157C133.46 570.018 134.281 569.122 135.308 568.469C136.334 567.815 137.464 567.489 138.696 567.489C139.517 567.489 140.264 567.629 140.936 567.909C141.608 568.189 142.186 568.534 142.672 568.945V567.825H144.968V582.049C144.968 583.654 144.688 584.961 144.128 585.969C143.568 586.977 142.784 587.714 141.776 588.181C140.786 588.647 139.62 588.881 138.276 588.881ZM138.976 580.145C139.722 580.145 140.394 579.977 140.992 579.641C141.589 579.305 142.074 578.913 142.448 578.465V570.849C142.037 570.55 141.542 570.279 140.964 570.037C140.385 569.794 139.713 569.673 138.948 569.673C138.182 569.673 137.464 569.878 136.792 570.289C136.12 570.699 135.569 571.297 135.14 572.081C134.729 572.846 134.524 573.789 134.524 574.909C134.524 575.973 134.729 576.897 135.14 577.681C135.569 578.465 136.12 579.071 136.792 579.501C137.464 579.93 138.192 580.145 138.976 580.145Z" fill="black"/></svg>