<svg width="346" height="721" viewBox="0 0 346 721" fill="none" xmlns="http://www.w3.org/2000/svg"><path xmlns="http://www.w3.org/2000/svg" d="M20.827 621.881C20.267 621.881 19.7723 621.825 19.343 621.713C18.9323 621.601 18.6056 621.47 18.363 621.321L18.923 619.221C19.147 619.351 19.427 619.463 19.763 619.557C20.099 619.65 20.4723 619.697 20.883 619.697C21.667 619.697 22.367 619.445 22.983 618.941C23.599 618.437 24.187 617.447 24.747 615.973L25.391 614.293H24.047L18.363 601.497L20.603 600.489L26.035 612.613L30.263 600.601L32.587 601.497L27.239 616.113C26.6976 617.606 26.1096 618.773 25.475 619.613C24.8403 620.453 24.1403 621.041 23.375 621.377C22.6096 621.713 21.7603 621.881 20.827 621.881Z" fill="black"/></svg>