<svg width="346" height="721" viewBox="0 0 346 721" fill="none" xmlns="http://www.w3.org/2000/svg"><path xmlns="http://www.w3.org/2000/svg" d="M39.5432 615.721C38.6845 615.721 37.9099 615.562 37.2192 615.245C36.5285 614.909 35.9779 614.377 35.5672 613.649C35.1752 612.921 34.9792 611.978 34.9792 610.821V594.665H37.4992V610.569C37.4992 611.577 37.7045 612.323 38.1152 612.809C38.5445 613.294 39.1325 613.537 39.8792 613.537C40.2339 613.537 40.5792 613.499 40.9152 613.425C41.2699 613.331 41.5685 613.229 41.8112 613.117L42.4272 615.161C42.0912 615.31 41.6712 615.441 41.1672 615.553C40.6819 615.665 40.1405 615.721 39.5432 615.721Z" fill="black"/></svg>