<svg width="346" height="721" viewBox="0 0 346 721" fill="none" xmlns="http://www.w3.org/2000/svg"><path xmlns="http://www.w3.org/2000/svg" d="M51.7989 615.385V600.825H54.2349V603.261C54.7576 602.477 55.4202 601.823 56.2229 601.301C57.0442 600.759 58.0149 600.489 59.1349 600.489C60.7776 600.489 62.0002 600.983 62.8029 601.973C63.6242 602.962 64.0349 604.269 64.0349 605.893V615.385H61.5149V606.173C61.5149 605.127 61.2629 604.287 60.7589 603.653C60.2736 603.018 59.5922 602.701 58.7149 602.701C57.8562 602.701 57.0442 603.009 56.2789 603.625C55.5136 604.222 54.8602 604.931 54.3189 605.753V615.385H51.7989Z" fill="black"/></svg>