<svg width="346" height="721" viewBox="0 0 346 721" fill="none" xmlns="http://www.w3.org/2000/svg"><path xmlns="http://www.w3.org/2000/svg" d="M99.8909 615.721C99.0322 615.721 98.2575 615.562 97.5669 615.245C96.8762 614.909 96.3255 614.377 95.9149 613.649C95.5229 612.921 95.3269 611.978 95.3269 610.821V594.665H97.8469V610.569C97.8469 611.577 98.0522 612.323 98.4629 612.809C98.8922 613.294 99.4802 613.537 100.227 613.537C100.582 613.537 100.927 613.499 101.263 613.425C101.618 613.331 101.916 613.229 102.159 613.117L102.775 615.161C102.439 615.31 102.019 615.441 101.515 615.553C101.03 615.665 100.488 615.721 99.8909 615.721Z" fill="black"/></svg>