<svg width="346" height="721" viewBox="0 0 346 721" fill="none" xmlns="http://www.w3.org/2000/svg"><path xmlns="http://www.w3.org/2000/svg" d="M110.308 615.721C109.095 615.721 107.994 615.413 107.004 614.797C106.015 614.181 105.222 613.313 104.624 612.193C104.046 611.054 103.756 609.719 103.756 608.189C103.756 606.733 104.046 605.426 104.624 604.269C105.222 603.111 106.034 602.197 107.06 601.525C108.106 600.834 109.3 600.489 110.644 600.489C111.484 600.489 112.24 600.638 112.912 600.937C113.603 601.217 114.2 601.571 114.704 602.001V600.825H117V611.857C117 612.566 117.168 613.033 117.504 613.257C117.859 613.462 118.242 613.565 118.652 613.565L118.12 615.525C116.328 615.525 115.246 614.797 114.872 613.341C114.443 613.938 113.855 614.489 113.108 614.993C112.38 615.478 111.447 615.721 110.308 615.721ZM110.868 613.481C111.578 613.481 112.25 613.313 112.884 612.977C113.519 612.622 114.051 612.183 114.48 611.661V603.849C113.976 603.494 113.416 603.214 112.8 603.009C112.203 602.785 111.568 602.673 110.896 602.673C110 602.673 109.207 602.906 108.516 603.373C107.844 603.821 107.312 604.455 106.92 605.277C106.528 606.079 106.332 607.022 106.332 608.105C106.332 609.15 106.528 610.083 106.92 610.905C107.312 611.707 107.854 612.342 108.544 612.809C109.235 613.257 110.01 613.481 110.868 613.481Z" fill="black"/></svg>