<svg width="346" height="721" viewBox="0 0 346 721" fill="none" xmlns="http://www.w3.org/2000/svg"><path xmlns="http://www.w3.org/2000/svg" d="M142.87 615.721C142.03 615.721 141.237 615.571 140.49 615.273C139.762 614.955 139.156 614.591 138.67 614.181V615.385H136.318V594.665H138.838V602.337C139.212 601.907 139.753 601.497 140.462 601.105C141.19 600.694 142.049 600.489 143.038 600.489C144.158 600.489 145.204 600.787 146.174 601.385C147.164 601.963 147.957 602.813 148.554 603.933C149.152 605.034 149.45 606.378 149.45 607.965C149.45 609.122 149.264 610.177 148.89 611.129C148.517 612.081 148.013 612.902 147.378 613.593C146.762 614.265 146.062 614.787 145.278 615.161C144.494 615.534 143.692 615.721 142.87 615.721ZM142.198 613.481C143.113 613.481 143.916 613.257 144.606 612.809C145.316 612.361 145.866 611.726 146.258 610.905C146.669 610.083 146.874 609.131 146.874 608.049C146.874 606.929 146.669 605.967 146.258 605.165C145.866 604.362 145.334 603.746 144.662 603.317C144.009 602.887 143.281 602.673 142.478 602.673C141.676 602.673 140.948 602.878 140.294 603.289C139.66 603.681 139.174 604.11 138.838 604.577V612.361C139.268 612.697 139.772 612.967 140.35 613.173C140.929 613.378 141.545 613.481 142.198 613.481Z" fill="black"/></svg>