<svg width="346" height="721" viewBox="0 0 346 721" fill="none" xmlns="http://www.w3.org/2000/svg"><path xmlns="http://www.w3.org/2000/svg" d="M158.515 615.721C157.302 615.721 156.201 615.413 155.211 614.797C154.222 614.181 153.429 613.313 152.831 612.193C152.253 611.054 151.963 609.719 151.963 608.189C151.963 606.733 152.253 605.426 152.831 604.269C153.429 603.111 154.241 602.197 155.267 601.525C156.313 600.834 157.507 600.489 158.851 600.489C159.691 600.489 160.447 600.638 161.119 600.937C161.81 601.217 162.407 601.571 162.911 602.001V600.825H165.207V611.857C165.207 612.566 165.375 613.033 165.711 613.257C166.066 613.462 166.449 613.565 166.859 613.565L166.327 615.525C164.535 615.525 163.453 614.797 163.079 613.341C162.65 613.938 162.062 614.489 161.315 614.993C160.587 615.478 159.654 615.721 158.515 615.721ZM159.075 613.481C159.785 613.481 160.457 613.313 161.091 612.977C161.726 612.622 162.258 612.183 162.687 611.661V603.849C162.183 603.494 161.623 603.214 161.007 603.009C160.41 602.785 159.775 602.673 159.103 602.673C158.207 602.673 157.414 602.906 156.723 603.373C156.051 603.821 155.519 604.455 155.127 605.277C154.735 606.079 154.539 607.022 154.539 608.105C154.539 609.15 154.735 610.083 155.127 610.905C155.519 611.707 156.061 612.342 156.751 612.809C157.442 613.257 158.217 613.481 159.075 613.481Z" fill="black"/></svg>