<svg width="346" height="721" viewBox="0 0 346 721" fill="none" xmlns="http://www.w3.org/2000/svg"><path xmlns="http://www.w3.org/2000/svg" d="M170.225 615.385V600.825H172.661V603.989C172.903 603.373 173.23 602.803 173.641 602.281C174.051 601.739 174.565 601.31 175.181 600.993C175.797 600.657 176.515 600.489 177.337 600.489C177.617 600.489 177.897 600.507 178.177 600.545C178.457 600.563 178.69 600.601 178.877 600.657L178.121 603.261C177.766 603.111 177.346 603.037 176.861 603.037C176.17 603.037 175.507 603.233 174.873 603.625C174.257 604.017 173.743 604.623 173.333 605.445C172.941 606.266 172.745 607.311 172.745 608.581V615.385H170.225Z" fill="black"/></svg>