<svg width="346" height="721" viewBox="0 0 346 721" fill="none" xmlns="http://www.w3.org/2000/svg"><path xmlns="http://www.w3.org/2000/svg" d="M185.832 615.721C184.974 615.721 184.199 615.562 183.508 615.245C182.818 614.909 182.267 614.377 181.856 613.649C181.464 612.921 181.268 611.978 181.268 610.821V594.665H183.788V610.569C183.788 611.577 183.994 612.323 184.404 612.809C184.834 613.294 185.422 613.537 186.168 613.537C186.523 613.537 186.868 613.499 187.204 613.425C187.559 613.331 187.858 613.229 188.1 613.117L188.716 615.161C188.38 615.31 187.96 615.441 187.456 615.553C186.971 615.665 186.43 615.721 185.832 615.721Z" fill="black"/></svg>