<svg width="346" height="721" viewBox="0 0 346 721" fill="none" xmlns="http://www.w3.org/2000/svg"><path xmlns="http://www.w3.org/2000/svg" d="M25.5979 648.721C24.7392 648.721 23.9646 648.562 23.2739 648.245C22.5832 647.909 22.0326 647.377 21.6219 646.649C21.2299 645.921 21.0339 644.978 21.0339 643.821V627.665H23.5539V643.569C23.5539 644.577 23.7592 645.323 24.1699 645.809C24.5992 646.294 25.1872 646.537 25.9339 646.537C26.2886 646.537 26.6339 646.499 26.9699 646.425C27.3246 646.331 27.6232 646.229 27.8659 646.117L28.4819 648.161C28.1459 648.31 27.7259 648.441 27.2219 648.553C26.7366 648.665 26.1952 648.721 25.5979 648.721Z" fill="black"/></svg>