<svg width="346" height="721" viewBox="0 0 346 721" fill="none" xmlns="http://www.w3.org/2000/svg"><path xmlns="http://www.w3.org/2000/svg" d="M43.7336 648.721C42.3523 648.721 41.1389 648.403 40.0936 647.769C39.0669 647.115 38.2736 646.219 37.7136 645.081C37.1536 643.923 36.8736 642.598 36.8736 641.105C36.8736 639.705 37.1536 638.426 37.7136 637.269C38.2923 636.111 39.1136 635.197 40.1776 634.525C41.2416 633.834 42.4923 633.489 43.9296 633.489C44.7509 633.489 45.4696 633.563 46.0856 633.713C46.7203 633.862 47.3269 634.077 47.9056 634.357L47.1496 636.485C46.6269 636.223 46.1229 636.037 45.6376 635.925C45.1709 635.794 44.6483 635.729 44.0696 635.729C42.7629 635.729 41.6616 636.205 40.7656 637.157C39.8883 638.09 39.4496 639.387 39.4496 641.049C39.4496 642.057 39.6363 642.971 40.0096 643.793C40.3829 644.614 40.8963 645.267 41.5496 645.753C42.2216 646.238 43.0056 646.481 43.9016 646.481C44.6109 646.481 45.2176 646.406 45.7216 646.257C46.2256 646.089 46.7669 645.855 47.3456 645.557L48.1296 647.685C47.5509 648.002 46.8976 648.254 46.1696 648.441C45.4603 648.627 44.6483 648.721 43.7336 648.721Z" fill="black"/></svg>