<svg width="346" height="721" viewBox="0 0 346 721" fill="none" xmlns="http://www.w3.org/2000/svg"><path xmlns="http://www.w3.org/2000/svg" d="M56.6112 648.721C54.5205 648.721 52.8592 648.058 51.6272 646.733C50.4138 645.389 49.8072 643.513 49.8072 641.105C49.8072 639.649 50.0778 638.351 50.6192 637.213C51.1792 636.055 51.9538 635.15 52.9432 634.497C53.9325 633.825 55.0805 633.489 56.3872 633.489C57.7872 633.489 58.9445 633.797 59.8592 634.413C60.7925 635.01 61.4925 635.822 61.9592 636.849C62.4258 637.875 62.6592 639.005 62.6592 640.237C62.6592 640.89 62.6312 641.525 62.5752 642.141H52.3832C52.5512 643.503 53.0272 644.567 53.8112 645.333C54.5952 646.098 55.6312 646.481 56.9192 646.481C57.7592 646.481 58.5152 646.397 59.1872 646.229C59.8592 646.042 60.5032 645.809 61.1192 645.529L61.7072 647.685C61.0352 647.983 60.2792 648.226 59.4392 648.413C58.5992 648.618 57.6565 648.721 56.6112 648.721ZM52.3552 640.097H60.3352C60.3352 638.678 59.9805 637.586 59.2712 636.821C58.5618 636.055 57.5818 635.673 56.3312 635.673C55.2485 635.673 54.3525 636.055 53.6432 636.821C52.9338 637.567 52.5045 638.659 52.3552 640.097Z" fill="black"/></svg>