<svg width="346" height="721" viewBox="0 0 346 721" fill="none" xmlns="http://www.w3.org/2000/svg"><path xmlns="http://www.w3.org/2000/svg" d="M103.336 648.721C102.122 648.721 101.021 648.413 100.032 647.797C99.0424 647.181 98.2491 646.313 97.6517 645.193C97.0731 644.054 96.7837 642.719 96.7837 641.189C96.7837 639.733 97.0731 638.426 97.6517 637.269C98.2491 636.111 99.0611 635.197 100.088 634.525C101.133 633.834 102.328 633.489 103.672 633.489C104.512 633.489 105.268 633.638 105.94 633.937C106.63 634.217 107.228 634.571 107.732 635.001V633.825H110.028V644.857C110.028 645.566 110.196 646.033 110.532 646.257C110.886 646.462 111.269 646.565 111.68 646.565L111.148 648.525C109.356 648.525 108.273 647.797 107.9 646.341C107.47 646.938 106.882 647.489 106.136 647.993C105.408 648.478 104.474 648.721 103.336 648.721ZM103.896 646.481C104.605 646.481 105.277 646.313 105.912 645.977C106.546 645.622 107.078 645.183 107.508 644.661V636.849C107.004 636.494 106.444 636.214 105.828 636.009C105.23 635.785 104.596 635.673 103.924 635.673C103.028 635.673 102.234 635.906 101.544 636.373C100.872 636.821 100.34 637.455 99.9477 638.277C99.5557 639.079 99.3597 640.022 99.3597 641.105C99.3597 642.15 99.5557 643.083 99.9477 643.905C100.34 644.707 100.881 645.342 101.572 645.809C102.262 646.257 103.037 646.481 103.896 646.481Z" fill="black"/></svg>