<svg width="346" height="721" viewBox="0 0 346 721" fill="none" xmlns="http://www.w3.org/2000/svg"><path xmlns="http://www.w3.org/2000/svg" d="M120.904 648.721C119.522 648.721 118.281 648.403 117.18 647.769C116.078 647.115 115.21 646.219 114.576 645.081C113.96 643.923 113.652 642.598 113.652 641.105C113.652 639.537 113.969 638.183 114.604 637.045C115.238 635.906 116.106 635.029 117.208 634.413C118.309 633.797 119.541 633.489 120.904 633.489C122.266 633.489 123.489 633.797 124.572 634.413C125.673 635.029 126.541 635.906 127.176 637.045C127.829 638.165 128.156 639.499 128.156 641.049C128.156 642.598 127.838 643.951 127.204 645.109C126.569 646.247 125.701 647.134 124.6 647.769C123.517 648.403 122.285 648.721 120.904 648.721ZM120.904 646.481C122.378 646.481 123.526 645.986 124.348 644.997C125.169 643.989 125.58 642.691 125.58 641.105C125.58 640.134 125.374 639.247 124.964 638.445C124.553 637.623 123.993 636.97 123.284 636.485C122.593 635.981 121.8 635.729 120.904 635.729C119.429 635.729 118.281 636.214 117.46 637.185C116.638 638.155 116.228 639.443 116.228 641.049C116.228 642.019 116.433 642.925 116.844 643.765C117.254 644.586 117.805 645.249 118.496 645.753C119.205 646.238 120.008 646.481 120.904 646.481Z" fill="black"/></svg>