<svg width="346" height="721" viewBox="0 0 346 721" fill="none" xmlns="http://www.w3.org/2000/svg"><path xmlns="http://www.w3.org/2000/svg" d="M10.2828 681.721C8.58411 681.721 7.08144 681.319 5.77477 680.517C4.46811 679.695 3.45077 678.538 2.72277 677.045C1.99477 675.533 1.63077 673.741 1.63077 671.669C1.63077 669.671 1.99477 667.907 2.72277 666.377C3.46944 664.827 4.51477 663.623 5.85877 662.765C7.22144 661.887 8.80811 661.449 10.6188 661.449C11.5521 661.449 12.4014 661.542 13.1668 661.729C13.9321 661.897 14.6508 662.139 15.3228 662.457L14.5108 664.697C13.9321 664.417 13.3348 664.193 12.7188 664.025C12.1214 663.857 11.4121 663.773 10.5908 663.773C9.39611 663.773 8.32277 664.081 7.37077 664.697C6.43744 665.313 5.70011 666.199 5.15877 667.357C4.61744 668.514 4.34677 669.914 4.34677 671.557C4.34677 673.125 4.60811 674.497 5.13077 675.673C5.67211 676.849 6.40944 677.763 7.34277 678.417C8.29477 679.07 9.37744 679.397 10.5908 679.397C11.5054 679.397 12.2988 679.285 12.9708 679.061C13.6428 678.837 14.2961 678.547 14.9308 678.193L15.7428 680.405C15.0521 680.778 14.2588 681.095 13.3628 681.357C12.4854 681.599 11.4588 681.721 10.2828 681.721Z" fill="black"/></svg>