<svg width="346" height="721" viewBox="0 0 346 721" fill="none" xmlns="http://www.w3.org/2000/svg"><path xmlns="http://www.w3.org/2000/svg" d="M19.0958 681.385V660.665H21.6158V669.149C22.1384 668.383 22.8011 667.749 23.6038 667.245C24.4064 666.741 25.3491 666.489 26.4318 666.489C28.0744 666.489 29.2971 666.983 30.0998 667.973C30.9211 668.962 31.3318 670.269 31.3318 671.893V681.385H28.8118V672.173C28.8118 671.127 28.5691 670.287 28.0838 669.653C27.5984 669.018 26.9171 668.701 26.0398 668.701C25.1811 668.701 24.3598 669.009 23.5758 669.625C22.8104 670.222 22.1571 670.931 21.6158 671.753V681.385H19.0958Z" fill="black"/></svg>