<svg width="346" height="721" viewBox="0 0 346 721" fill="none" xmlns="http://www.w3.org/2000/svg"><path xmlns="http://www.w3.org/2000/svg" d="M40.4261 681.721C39.5861 681.721 38.7928 681.543 38.0461 681.189C37.2994 680.834 36.6928 680.265 36.2261 679.481C35.7594 678.678 35.5261 677.614 35.5261 676.289V666.825H38.0461V675.953C38.0461 677.091 38.2888 677.969 38.7741 678.585C39.2594 679.182 39.9688 679.481 40.9021 679.481C41.6674 679.481 42.4048 679.331 43.1141 679.033C43.8421 678.715 44.4861 678.295 45.0461 677.773V666.825H47.5661V677.605C47.5661 678.407 47.7341 678.939 48.0701 679.201C48.4248 679.443 48.8074 679.565 49.2181 679.565L48.6861 681.525C46.9501 681.525 45.8768 680.834 45.4661 679.453C44.8128 680.125 44.0568 680.675 43.1981 681.105C42.3394 681.515 41.4154 681.721 40.4261 681.721Z" fill="black"/></svg>