<svg width="346" height="721" viewBox="0 0 346 721" fill="none" xmlns="http://www.w3.org/2000/svg"><path xmlns="http://www.w3.org/2000/svg" d="M52.3816 687.881C51.8216 687.881 51.327 687.825 50.8976 687.713C50.487 687.601 50.1603 687.47 49.9176 687.321L50.4776 685.221C50.7016 685.351 50.9816 685.463 51.3176 685.557C51.6536 685.65 52.027 685.697 52.4376 685.697C53.2216 685.697 53.9216 685.445 54.5376 684.941C55.1536 684.437 55.7417 683.447 56.3017 681.973L56.9456 680.293H55.6017L49.9176 667.497L52.1576 666.489L57.5896 678.613L61.8176 666.601L64.1416 667.497L58.7936 682.113C58.2523 683.606 57.6643 684.773 57.0296 685.613C56.395 686.453 55.695 687.041 54.9296 687.377C54.1643 687.713 53.315 687.881 52.3816 687.881Z" fill="black"/></svg>