<svg width="346" height="721" viewBox="0 0 346 721" fill="none" xmlns="http://www.w3.org/2000/svg"><path xmlns="http://www.w3.org/2000/svg" d="M71.951 681.721C69.8604 681.721 68.199 681.058 66.967 679.733C65.7537 678.389 65.147 676.513 65.147 674.105C65.147 672.649 65.4177 671.351 65.959 670.213C66.519 669.055 67.2937 668.15 68.283 667.497C69.2724 666.825 70.4204 666.489 71.727 666.489C73.127 666.489 74.2844 666.797 75.199 667.413C76.1324 668.01 76.8324 668.822 77.299 669.849C77.7657 670.875 77.999 672.005 77.999 673.237C77.999 673.89 77.971 674.525 77.915 675.141H67.723C67.891 676.503 68.367 677.567 69.151 678.333C69.935 679.098 70.971 679.481 72.259 679.481C73.099 679.481 73.855 679.397 74.527 679.229C75.199 679.042 75.843 678.809 76.459 678.529L77.047 680.685C76.375 680.983 75.619 681.226 74.779 681.413C73.939 681.618 72.9964 681.721 71.951 681.721ZM67.695 673.097H75.675C75.675 671.678 75.3204 670.586 74.611 669.821C73.9017 669.055 72.9217 668.673 71.671 668.673C70.5884 668.673 69.6924 669.055 68.983 669.821C68.2737 670.567 67.8444 671.659 67.695 673.097Z" fill="black"/></svg>