<svg width="346" height="721" viewBox="0 0 346 721" fill="none" xmlns="http://www.w3.org/2000/svg"><path xmlns="http://www.w3.org/2000/svg" d="M97.564 681.721C95.8654 681.721 94.3627 681.319 93.056 680.517C91.7494 679.695 90.732 678.538 90.004 677.045C89.276 675.533 88.912 673.741 88.912 671.669C88.912 669.671 89.276 667.907 90.004 666.377C90.7507 664.827 91.796 663.623 93.14 662.765C94.5027 661.887 96.0894 661.449 97.9 661.449C98.8334 661.449 99.6827 661.542 100.448 661.729C101.213 661.897 101.932 662.139 102.604 662.457L101.792 664.697C101.213 664.417 100.616 664.193 100 664.025C99.4027 663.857 98.6934 663.773 97.872 663.773C96.6774 663.773 95.604 664.081 94.652 664.697C93.7187 665.313 92.9814 666.199 92.44 667.357C91.8987 668.514 91.628 669.914 91.628 671.557C91.628 673.125 91.8894 674.497 92.412 675.673C92.9534 676.849 93.6907 677.763 94.624 678.417C95.576 679.07 96.6587 679.397 97.872 679.397C98.7867 679.397 99.58 679.285 100.252 679.061C100.924 678.837 101.577 678.547 102.212 678.193L103.024 680.405C102.333 680.778 101.54 681.095 100.644 681.357C99.7667 681.599 98.74 681.721 97.564 681.721Z" fill="black"/></svg>