<svg width="346" height="721" viewBox="0 0 346 721" fill="none" xmlns="http://www.w3.org/2000/svg"><path xmlns="http://www.w3.org/2000/svg" d="M106.377 681.385V660.665H108.897V669.149C109.42 668.383 110.082 667.749 110.885 667.245C111.688 666.741 112.63 666.489 113.713 666.489C115.356 666.489 116.578 666.983 117.381 667.973C118.202 668.962 118.613 670.269 118.613 671.893V681.385H116.093V672.173C116.093 671.127 115.85 670.287 115.365 669.653C114.88 669.018 114.198 668.701 113.321 668.701C112.462 668.701 111.641 669.009 110.857 669.625C110.092 670.222 109.438 670.931 108.897 671.753V681.385H106.377Z" fill="black"/></svg>