<svg width="346" height="721" viewBox="0 0 346 721" fill="none" xmlns="http://www.w3.org/2000/svg"><path xmlns="http://www.w3.org/2000/svg" d="M128.771 681.721C126.681 681.721 125.019 681.058 123.787 679.733C122.574 678.389 121.967 676.513 121.967 674.105C121.967 672.649 122.238 671.351 122.779 670.213C123.339 669.055 124.114 668.15 125.103 667.497C126.093 666.825 127.241 666.489 128.547 666.489C129.947 666.489 131.105 666.797 132.019 667.413C132.953 668.01 133.653 668.822 134.119 669.849C134.586 670.875 134.819 672.005 134.819 673.237C134.819 673.89 134.791 674.525 134.735 675.141H124.543C124.711 676.503 125.187 677.567 125.971 678.333C126.755 679.098 127.791 679.481 129.079 679.481C129.919 679.481 130.675 679.397 131.347 679.229C132.019 679.042 132.663 678.809 133.279 678.529L133.867 680.685C133.195 680.983 132.439 681.226 131.599 681.413C130.759 681.618 129.817 681.721 128.771 681.721ZM124.515 673.097H132.495C132.495 671.678 132.141 670.586 131.431 669.821C130.722 669.055 129.742 668.673 128.491 668.673C127.409 668.673 126.513 669.055 125.803 669.821C125.094 670.567 124.665 671.659 124.515 673.097Z" fill="black"/></svg>