<svg width="346" height="721" viewBox="0 0 346 721" fill="none" xmlns="http://www.w3.org/2000/svg"><path xmlns="http://www.w3.org/2000/svg" d="M138.178 681.385V666.825H140.614V669.261C141.136 668.477 141.799 667.823 142.602 667.301C143.423 666.759 144.394 666.489 145.514 666.489C147.156 666.489 148.379 666.983 149.182 667.973C150.003 668.962 150.414 670.269 150.414 671.893V681.385H147.894V672.173C147.894 671.127 147.642 670.287 147.138 669.653C146.652 669.018 145.971 668.701 145.094 668.701C144.235 668.701 143.423 669.009 142.658 669.625C141.892 670.222 141.239 670.931 140.698 671.753V681.385H138.178Z" fill="black"/></svg>