<svg width="346" height="721" viewBox="0 0 346 721" fill="none" xmlns="http://www.w3.org/2000/svg"><path xmlns="http://www.w3.org/2000/svg" d="M188.328 681.721C187.488 681.721 186.695 681.543 185.948 681.189C185.202 680.834 184.595 680.265 184.128 679.481C183.662 678.678 183.428 677.614 183.428 676.289V666.825H185.948V675.953C185.948 677.091 186.191 677.969 186.676 678.585C187.162 679.182 187.871 679.481 188.804 679.481C189.57 679.481 190.307 679.331 191.016 679.033C191.744 678.715 192.388 678.295 192.948 677.773V666.825H195.468V677.605C195.468 678.407 195.636 678.939 195.972 679.201C196.327 679.443 196.71 679.565 197.12 679.565L196.588 681.525C194.852 681.525 193.779 680.834 193.368 679.453C192.715 680.125 191.959 680.675 191.1 681.105C190.242 681.515 189.318 681.721 188.328 681.721Z" fill="black"/></svg>