<svg width="346" height="721" viewBox="0 0 346 721" fill="none" xmlns="http://www.w3.org/2000/svg"><path xmlns="http://www.w3.org/2000/svg" d="M213.347 681.721C211.966 681.721 210.752 681.403 209.707 680.769C208.68 680.115 207.887 679.219 207.327 678.081C206.767 676.923 206.487 675.598 206.487 674.105C206.487 672.705 206.767 671.426 207.327 670.269C207.906 669.111 208.727 668.197 209.791 667.525C210.855 666.834 212.106 666.489 213.543 666.489C214.364 666.489 215.083 666.563 215.699 666.713C216.334 666.862 216.94 667.077 217.519 667.357L216.763 669.485C216.24 669.223 215.736 669.037 215.251 668.925C214.784 668.794 214.262 668.729 213.683 668.729C212.376 668.729 211.275 669.205 210.379 670.157C209.502 671.09 209.063 672.387 209.063 674.049C209.063 675.057 209.25 675.971 209.623 676.793C209.996 677.614 210.51 678.267 211.163 678.753C211.835 679.238 212.619 679.481 213.515 679.481C214.224 679.481 214.831 679.406 215.335 679.257C215.839 679.089 216.38 678.855 216.959 678.557L217.743 680.685C217.164 681.002 216.511 681.254 215.783 681.441C215.074 681.627 214.262 681.721 213.347 681.721Z" fill="black"/></svg>