<svg width="346" height="721" viewBox="0 0 346 721" fill="none" xmlns="http://www.w3.org/2000/svg"><path xmlns="http://www.w3.org/2000/svg" d="M226.224 681.721C224.134 681.721 222.472 681.058 221.24 679.733C220.027 678.389 219.42 676.513 219.42 674.105C219.42 672.649 219.691 671.351 220.232 670.213C220.792 669.055 221.567 668.15 222.556 667.497C223.546 666.825 224.694 666.489 226 666.489C227.4 666.489 228.558 666.797 229.472 667.413C230.406 668.01 231.106 668.822 231.572 669.849C232.039 670.875 232.272 672.005 232.272 673.237C232.272 673.89 232.244 674.525 232.188 675.141H221.996C222.164 676.503 222.64 677.567 223.424 678.333C224.208 679.098 225.244 679.481 226.532 679.481C227.372 679.481 228.128 679.397 228.8 679.229C229.472 679.042 230.116 678.809 230.732 678.529L231.32 680.685C230.648 680.983 229.892 681.226 229.052 681.413C228.212 681.618 227.27 681.721 226.224 681.721ZM221.968 673.097H229.948C229.948 671.678 229.594 670.586 228.884 669.821C228.175 669.055 227.195 668.673 225.944 668.673C224.862 668.673 223.966 669.055 223.256 669.821C222.547 670.567 222.118 671.659 221.968 673.097Z" fill="black"/></svg>