<svg width="346" height="721" viewBox="0 0 346 721" fill="none" xmlns="http://www.w3.org/2000/svg"><path xmlns="http://www.w3.org/2000/svg" d="M7.62277 714.721C6.26011 714.721 5.01877 714.543 3.89877 714.189C2.77877 713.815 1.83611 713.33 1.07077 712.733L2.41477 710.493C3.08677 711.053 3.84277 711.51 4.68277 711.865C5.52277 712.219 6.50277 712.397 7.62277 712.397C8.96677 712.397 10.0308 712.117 10.8148 711.557C11.5988 710.997 11.9908 710.241 11.9908 709.289C11.9908 708.747 11.8788 708.271 11.6548 707.861C11.4308 707.431 10.9921 707.021 10.3388 706.629C9.70411 706.218 8.76144 705.779 7.51077 705.313C6.16677 704.79 5.09344 704.267 4.29077 703.745C3.48811 703.203 2.90944 702.597 2.55477 701.925C2.21877 701.234 2.05077 700.422 2.05077 699.489C2.05077 698.555 2.30277 697.715 2.80677 696.969C3.32944 696.203 4.08544 695.597 5.07477 695.149C6.08277 694.682 7.29611 694.449 8.71477 694.449C9.87211 694.449 10.9081 694.57 11.8228 694.813C12.7561 695.037 13.6614 695.363 14.5388 695.793L13.5588 698.061C12.9241 697.687 12.1774 697.379 11.3188 697.137C10.4788 696.875 9.59211 696.745 8.65877 696.745C7.42677 696.745 6.45611 696.987 5.74677 697.473C5.03744 697.958 4.68277 698.583 4.68277 699.349C4.68277 699.834 4.78544 700.263 4.99077 700.637C5.19611 701.01 5.59744 701.374 6.19477 701.729C6.81077 702.083 7.72544 702.485 8.93877 702.933C10.3948 703.474 11.5428 704.043 12.3828 704.641C13.2414 705.238 13.8481 705.891 14.2028 706.601C14.5574 707.291 14.7348 708.085 14.7348 708.981C14.7348 710.194 14.4268 711.23 13.8108 712.089C13.2134 712.947 12.3734 713.601 11.2908 714.049C10.2268 714.497 9.00411 714.721 7.62277 714.721Z" fill="black"/></svg>