<svg width="346" height="721" viewBox="0 0 346 721" fill="none" xmlns="http://www.w3.org/2000/svg"><path xmlns="http://www.w3.org/2000/svg" d="M23.9568 714.721C22.7435 714.721 21.6422 714.413 20.6528 713.797C19.6635 713.181 18.8702 712.313 18.2728 711.193C17.6942 710.054 17.4048 708.719 17.4048 707.189C17.4048 705.733 17.6942 704.426 18.2728 703.269C18.8702 702.111 19.6822 701.197 20.7088 700.525C21.7542 699.834 22.9488 699.489 24.2928 699.489C25.1328 699.489 25.8888 699.638 26.5608 699.937C27.2515 700.217 27.8488 700.571 28.3528 701.001V699.825H30.6488V710.857C30.6488 711.566 30.8168 712.033 31.1528 712.257C31.5075 712.462 31.8902 712.565 32.3008 712.565L31.7688 714.525C29.9768 714.525 28.8942 713.797 28.5208 712.341C28.0915 712.938 27.5035 713.489 26.7568 713.993C26.0288 714.478 25.0955 714.721 23.9568 714.721ZM24.5168 712.481C25.2262 712.481 25.8982 712.313 26.5328 711.977C27.1675 711.622 27.6995 711.183 28.1288 710.661V702.849C27.6248 702.494 27.0648 702.214 26.4488 702.009C25.8515 701.785 25.2168 701.673 24.5448 701.673C23.6488 701.673 22.8555 701.906 22.1648 702.373C21.4928 702.821 20.9608 703.455 20.5688 704.277C20.1768 705.079 19.9808 706.022 19.9808 707.105C19.9808 708.15 20.1768 709.083 20.5688 709.905C20.9608 710.707 21.5022 711.342 22.1928 711.809C22.8835 712.257 23.6582 712.481 24.5168 712.481Z" fill="black"/></svg>