<svg width="346" height="721" viewBox="0 0 346 721" fill="none" xmlns="http://www.w3.org/2000/svg"><path xmlns="http://www.w3.org/2000/svg" d="M39.5861 714.721C38.4848 714.721 37.4861 714.581 36.5901 714.301C35.7128 714.021 34.9848 713.657 34.4061 713.209L35.4701 711.109C35.9554 711.519 36.5621 711.865 37.2901 712.145C38.0368 712.406 38.8301 712.537 39.6701 712.537C40.7154 712.537 41.4994 712.369 42.0221 712.033C42.5634 711.678 42.8341 711.23 42.8341 710.689C42.8341 710.297 42.7314 709.951 42.5261 709.653C42.3394 709.354 41.9848 709.065 41.4621 708.785C40.9394 708.486 40.1834 708.169 39.1941 707.833C37.8314 707.366 36.8048 706.815 36.1141 706.181C35.4421 705.527 35.1061 704.631 35.1061 703.493C35.1061 702.373 35.5914 701.43 36.5621 700.665C37.5514 699.881 38.9141 699.489 40.6501 699.489C41.5834 699.489 42.4141 699.591 43.1421 699.797C43.8701 699.983 44.5234 700.226 45.1021 700.525L44.4021 702.597C43.8981 702.298 43.3194 702.055 42.6661 701.869C42.0314 701.682 41.3221 701.589 40.5381 701.589C39.5674 701.589 38.8301 701.785 38.3261 702.177C37.8221 702.569 37.5701 702.998 37.5701 703.465C37.5701 703.913 37.7661 704.295 38.1581 704.613C38.5501 704.93 39.3154 705.275 40.4541 705.649C42.3021 706.265 43.5901 706.946 44.3181 707.693C45.0461 708.439 45.4101 709.373 45.4101 710.493C45.4101 711.799 44.8781 712.835 43.8141 713.601C42.7688 714.347 41.3594 714.721 39.5861 714.721Z" fill="black"/></svg>