<svg width="346" height="721" viewBox="0 0 346 721" fill="none" xmlns="http://www.w3.org/2000/svg"><path xmlns="http://www.w3.org/2000/svg" d="M75.6365 714.721C74.4232 714.721 73.3219 714.413 72.3325 713.797C71.3432 713.181 70.5499 712.313 69.9525 711.193C69.3739 710.054 69.0845 708.719 69.0845 707.189C69.0845 705.733 69.3739 704.426 69.9525 703.269C70.5499 702.111 71.3619 701.197 72.3885 700.525C73.4339 699.834 74.6285 699.489 75.9725 699.489C76.8125 699.489 77.5685 699.638 78.2405 699.937C78.9312 700.217 79.5285 700.571 80.0325 701.001V699.825H82.3285V710.857C82.3285 711.566 82.4965 712.033 82.8325 712.257C83.1872 712.462 83.5699 712.565 83.9805 712.565L83.4485 714.525C81.6565 714.525 80.5739 713.797 80.2005 712.341C79.7712 712.938 79.1832 713.489 78.4365 713.993C77.7085 714.478 76.7752 714.721 75.6365 714.721ZM76.1965 712.481C76.9059 712.481 77.5779 712.313 78.2125 711.977C78.8472 711.622 79.3792 711.183 79.8085 710.661V702.849C79.3045 702.494 78.7445 702.214 78.1285 702.009C77.5312 701.785 76.8965 701.673 76.2245 701.673C75.3285 701.673 74.5352 701.906 73.8445 702.373C73.1725 702.821 72.6405 703.455 72.2485 704.277C71.8565 705.079 71.6605 706.022 71.6605 707.105C71.6605 708.15 71.8565 709.083 72.2485 709.905C72.6405 710.707 73.1819 711.342 73.8725 711.809C74.5632 712.257 75.3379 712.481 76.1965 712.481Z" fill="black"/></svg>