<svg width="346" height="721" viewBox="0 0 346 721" fill="none" xmlns="http://www.w3.org/2000/svg"><path xmlns="http://www.w3.org/2000/svg" d="M100.892 714.721C99.5296 714.721 98.2883 714.543 97.1683 714.189C96.0483 713.815 95.1056 713.33 94.3403 712.733L95.6843 710.493C96.3563 711.053 97.1123 711.51 97.9523 711.865C98.7923 712.219 99.7723 712.397 100.892 712.397C102.236 712.397 103.3 712.117 104.084 711.557C104.868 710.997 105.26 710.241 105.26 709.289C105.26 708.747 105.148 708.271 104.924 707.861C104.7 707.431 104.262 707.021 103.608 706.629C102.974 706.218 102.031 705.779 100.78 705.313C99.4363 704.79 98.363 704.267 97.5603 703.745C96.7576 703.203 96.179 702.597 95.8243 701.925C95.4883 701.234 95.3203 700.422 95.3203 699.489C95.3203 698.555 95.5723 697.715 96.0763 696.969C96.599 696.203 97.355 695.597 98.3443 695.149C99.3523 694.682 100.566 694.449 101.984 694.449C103.142 694.449 104.178 694.57 105.092 694.813C106.026 695.037 106.931 695.363 107.808 695.793L106.828 698.061C106.194 697.687 105.447 697.379 104.588 697.137C103.748 696.875 102.862 696.745 101.928 696.745C100.696 696.745 99.7256 696.987 99.0163 697.473C98.307 697.958 97.9523 698.583 97.9523 699.349C97.9523 699.834 98.055 700.263 98.2603 700.637C98.4656 701.01 98.867 701.374 99.4643 701.729C100.08 702.083 100.995 702.485 102.208 702.933C103.664 703.474 104.812 704.043 105.652 704.641C106.511 705.238 107.118 705.891 107.472 706.601C107.827 707.291 108.004 708.085 108.004 708.981C108.004 710.194 107.696 711.23 107.08 712.089C106.483 712.947 105.643 713.601 104.56 714.049C103.496 714.497 102.274 714.721 100.892 714.721Z" fill="black"/></svg>