<svg width="346" height="721" viewBox="0 0 346 721" fill="none" xmlns="http://www.w3.org/2000/svg"><path xmlns="http://www.w3.org/2000/svg" d="M117.478 714.721C115.388 714.721 113.726 714.058 112.494 712.733C111.281 711.389 110.674 709.513 110.674 707.105C110.674 705.649 110.945 704.351 111.486 703.213C112.046 702.055 112.821 701.15 113.81 700.497C114.8 699.825 115.948 699.489 117.254 699.489C118.654 699.489 119.812 699.797 120.726 700.413C121.66 701.01 122.36 701.822 122.826 702.849C123.293 703.875 123.526 705.005 123.526 706.237C123.526 706.89 123.498 707.525 123.442 708.141H113.25C113.418 709.503 113.894 710.567 114.678 711.333C115.462 712.098 116.498 712.481 117.786 712.481C118.626 712.481 119.382 712.397 120.054 712.229C120.726 712.042 121.37 711.809 121.986 711.529L122.574 713.685C121.902 713.983 121.146 714.226 120.306 714.413C119.466 714.618 118.524 714.721 117.478 714.721ZM113.222 706.097H121.202C121.202 704.678 120.848 703.586 120.138 702.821C119.429 702.055 118.449 701.673 117.198 701.673C116.116 701.673 115.22 702.055 114.51 702.821C113.801 703.567 113.372 704.659 113.222 706.097Z" fill="black"/></svg>