<svg width="346" height="721" viewBox="0 0 346 721" fill="none" xmlns="http://www.w3.org/2000/svg"><path xmlns="http://www.w3.org/2000/svg" d="M126.885 714.385V699.825H129.321V702.989C129.563 702.373 129.89 701.803 130.301 701.281C130.712 700.739 131.225 700.31 131.841 699.993C132.457 699.657 133.176 699.489 133.997 699.489C134.277 699.489 134.557 699.507 134.837 699.545C135.117 699.563 135.35 699.601 135.537 699.657L134.781 702.261C134.426 702.111 134.006 702.037 133.521 702.037C132.83 702.037 132.168 702.233 131.533 702.625C130.917 703.017 130.404 703.623 129.993 704.445C129.601 705.266 129.405 706.311 129.405 707.581V714.385H126.885Z" fill="black"/></svg>