<svg width="346" height="721" viewBox="0 0 346 721" fill="none" xmlns="http://www.w3.org/2000/svg"><path xmlns="http://www.w3.org/2000/svg" d="M142.793 714.721C141.579 714.721 140.478 714.413 139.489 713.797C138.499 713.181 137.706 712.313 137.109 711.193C136.53 710.054 136.241 708.719 136.241 707.189C136.241 705.733 136.53 704.426 137.109 703.269C137.706 702.111 138.518 701.197 139.545 700.525C140.59 699.834 141.785 699.489 143.129 699.489C143.969 699.489 144.725 699.638 145.397 699.937C146.087 700.217 146.685 700.571 147.189 701.001V699.825H149.485V710.857C149.485 711.566 149.653 712.033 149.989 712.257C150.343 712.462 150.726 712.565 151.137 712.565L150.605 714.525C148.813 714.525 147.73 713.797 147.357 712.341C146.927 712.938 146.339 713.489 145.593 713.993C144.865 714.478 143.931 714.721 142.793 714.721ZM143.353 712.481C144.062 712.481 144.734 712.313 145.369 711.977C146.003 711.622 146.535 711.183 146.965 710.661V702.849C146.461 702.494 145.901 702.214 145.285 702.009C144.687 701.785 144.053 701.673 143.381 701.673C142.485 701.673 141.691 701.906 141.001 702.373C140.329 702.821 139.797 703.455 139.405 704.277C139.013 705.079 138.817 706.022 138.817 707.105C138.817 708.15 139.013 709.083 139.405 709.905C139.797 710.707 140.338 711.342 141.029 711.809C141.719 712.257 142.494 712.481 143.353 712.481Z" fill="black"/></svg>