<svg width="346" height="721" viewBox="0 0 346 721" fill="none" xmlns="http://www.w3.org/2000/svg"><path xmlns="http://www.w3.org/2000/svg" d="M154.624 720.545V703.549C154.624 702.914 154.465 702.466 154.148 702.205C153.849 701.925 153.457 701.785 152.972 701.785L153.504 699.825C155.221 699.825 156.295 700.506 156.724 701.869C156.911 701.589 157.209 701.262 157.62 700.889C158.049 700.515 158.572 700.189 159.188 699.909C159.823 699.629 160.541 699.489 161.344 699.489C162.464 699.489 163.509 699.787 164.48 700.385C165.469 700.963 166.263 701.813 166.86 702.933C167.457 704.034 167.756 705.378 167.756 706.965C167.756 708.514 167.457 709.877 166.86 711.053C166.263 712.21 165.479 713.115 164.508 713.769C163.556 714.403 162.52 714.721 161.4 714.721C160.541 714.721 159.739 714.553 158.992 714.217C158.245 713.862 157.629 713.461 157.144 713.013V720.545H154.624ZM160.896 712.481C162.165 712.481 163.192 711.986 163.976 710.997C164.779 709.989 165.18 708.673 165.18 707.049C165.18 705.929 164.975 704.967 164.564 704.165C164.172 703.362 163.64 702.746 162.968 702.317C162.315 701.887 161.587 701.673 160.784 701.673C159.981 701.673 159.253 701.878 158.6 702.289C157.965 702.681 157.48 703.11 157.144 703.577V710.745C157.629 711.249 158.189 711.669 158.824 712.005C159.459 712.322 160.149 712.481 160.896 712.481Z" fill="black"/></svg>