<svg width="346" height="721" viewBox="0 0 346 721" fill="none" xmlns="http://www.w3.org/2000/svg"><path xmlns="http://www.w3.org/2000/svg" d="M171.264 714.385V693.665H173.784V702.149C174.306 701.383 174.969 700.749 175.772 700.245C176.574 699.741 177.517 699.489 178.6 699.489C180.242 699.489 181.465 699.983 182.268 700.973C183.089 701.962 183.5 703.269 183.5 704.893V714.385H180.98V705.173C180.98 704.127 180.737 703.287 180.252 702.653C179.766 702.018 179.085 701.701 178.208 701.701C177.349 701.701 176.528 702.009 175.744 702.625C174.978 703.222 174.325 703.931 173.784 704.753V714.385H171.264Z" fill="black"/></svg>