<svg width="346" height="721" viewBox="0 0 346 721" fill="none" xmlns="http://www.w3.org/2000/svg"><path xmlns="http://www.w3.org/2000/svg" d="M194.834 714.385V699.825H197.27V702.261C197.793 701.477 198.455 700.823 199.258 700.301C200.061 699.759 200.975 699.489 202.002 699.489C203.159 699.489 204.102 699.769 204.83 700.329C205.577 700.889 206.099 701.635 206.398 702.569C206.977 701.71 207.658 700.982 208.442 700.385C209.245 699.787 210.234 699.489 211.41 699.489C212.997 699.489 214.173 699.993 214.938 701.001C215.722 701.99 216.114 703.287 216.114 704.893V714.385H213.594V705.089C213.594 704.081 213.361 703.269 212.894 702.653C212.427 702.018 211.783 701.701 210.962 701.701C210.122 701.701 209.338 702.018 208.61 702.653C207.901 703.269 207.275 703.997 206.734 704.837V714.385H204.214V705.089C204.214 704.081 203.981 703.269 203.514 702.653C203.047 702.018 202.403 701.701 201.582 701.701C200.761 701.701 199.986 702.009 199.258 702.625C198.53 703.222 197.895 703.931 197.354 704.753V714.385H194.834Z" fill="black"/></svg>