<svg width="346" height="721" viewBox="0 0 346 721" fill="none" xmlns="http://www.w3.org/2000/svg"><path xmlns="http://www.w3.org/2000/svg" d="M226.027 714.721C224.814 714.721 223.712 714.413 222.723 713.797C221.734 713.181 220.94 712.313 220.343 711.193C219.764 710.054 219.475 708.719 219.475 707.189C219.475 705.733 219.764 704.426 220.343 703.269C220.94 702.111 221.752 701.197 222.779 700.525C223.824 699.834 225.019 699.489 226.363 699.489C227.203 699.489 227.959 699.638 228.631 699.937C229.322 700.217 229.919 700.571 230.423 701.001V699.825H232.719V710.857C232.719 711.566 232.887 712.033 233.223 712.257C233.578 712.462 233.96 712.565 234.371 712.565L233.839 714.525C232.047 714.525 230.964 713.797 230.591 712.341C230.162 712.938 229.574 713.489 228.827 713.993C228.099 714.478 227.166 714.721 226.027 714.721ZM226.587 712.481C227.296 712.481 227.968 712.313 228.603 711.977C229.238 711.622 229.77 711.183 230.199 710.661V702.849C229.695 702.494 229.135 702.214 228.519 702.009C227.922 701.785 227.287 701.673 226.615 701.673C225.719 701.673 224.926 701.906 224.235 702.373C223.563 702.821 223.031 703.455 222.639 704.277C222.247 705.079 222.051 706.022 222.051 707.105C222.051 708.15 222.247 709.083 222.639 709.905C223.031 710.707 223.572 711.342 224.263 711.809C224.954 712.257 225.728 712.481 226.587 712.481Z" fill="black"/></svg>