<svg width="346" height="721" viewBox="0 0 346 721" fill="none" xmlns="http://www.w3.org/2000/svg"><path xmlns="http://www.w3.org/2000/svg" d="M253.103 714.721C251.591 714.721 250.247 714.329 249.071 713.545C247.895 712.761 246.971 711.65 246.299 710.213C245.627 708.757 245.291 707.049 245.291 705.089C245.291 702.998 245.646 701.159 246.355 699.573C247.064 697.967 248.082 696.717 249.407 695.821C250.751 694.906 252.366 694.449 254.251 694.449C255.464 694.449 256.547 694.598 257.499 694.897C258.451 695.195 259.347 695.578 260.187 696.045L259.207 698.257C258.423 697.827 257.62 697.473 256.799 697.193C255.996 696.913 255.1 696.773 254.111 696.773C252.935 696.773 251.89 697.09 250.975 697.725C250.06 698.341 249.332 699.255 248.791 700.469C248.268 701.682 248.007 703.166 248.007 704.921C248.007 706.489 248.25 707.833 248.735 708.953C249.22 710.054 249.892 710.903 250.751 711.501C251.61 712.098 252.599 712.397 253.719 712.397C254.764 712.397 255.688 712.182 256.491 711.753C257.312 711.305 257.956 710.847 258.423 710.381V706.097H254.363V703.997H260.943V714.385H258.591V712.425C257.938 713.003 257.144 713.535 256.211 714.021C255.278 714.487 254.242 714.721 253.103 714.721Z" fill="black"/></svg>