<svg width="346" height="721" viewBox="0 0 346 721" fill="none" xmlns="http://www.w3.org/2000/svg"><path xmlns="http://www.w3.org/2000/svg" d="M269.422 714.721C268.563 714.721 267.789 714.562 267.098 714.245C266.407 713.909 265.857 713.377 265.446 712.649C265.054 711.921 264.858 710.978 264.858 709.821V693.665H267.378V709.569C267.378 710.577 267.583 711.323 267.994 711.809C268.423 712.294 269.011 712.537 269.758 712.537C270.113 712.537 270.458 712.499 270.794 712.425C271.149 712.331 271.447 712.229 271.69 712.117L272.306 714.161C271.97 714.31 271.55 714.441 271.046 714.553C270.561 714.665 270.019 714.721 269.422 714.721Z" fill="black"/></svg>