<svg width="346" height="721" viewBox="0 0 346 721" fill="none" xmlns="http://www.w3.org/2000/svg"><path xmlns="http://www.w3.org/2000/svg" d="M280.4 714.721C279.018 714.721 277.777 714.403 276.676 713.769C275.574 713.115 274.706 712.219 274.072 711.081C273.456 709.923 273.148 708.598 273.148 707.105C273.148 705.537 273.465 704.183 274.1 703.045C274.734 701.906 275.602 701.029 276.704 700.413C277.805 699.797 279.037 699.489 280.4 699.489C281.762 699.489 282.985 699.797 284.068 700.413C285.169 701.029 286.037 701.906 286.672 703.045C287.325 704.165 287.652 705.499 287.652 707.049C287.652 708.598 287.334 709.951 286.7 711.109C286.065 712.247 285.197 713.134 284.096 713.769C283.013 714.403 281.781 714.721 280.4 714.721ZM280.4 712.481C281.874 712.481 283.022 711.986 283.844 710.997C284.665 709.989 285.076 708.691 285.076 707.105C285.076 706.134 284.87 705.247 284.46 704.445C284.049 703.623 283.489 702.97 282.78 702.485C282.089 701.981 281.296 701.729 280.4 701.729C278.925 701.729 277.777 702.214 276.956 703.185C276.134 704.155 275.724 705.443 275.724 707.049C275.724 708.019 275.929 708.925 276.34 709.765C276.75 710.586 277.301 711.249 277.992 711.753C278.701 712.238 279.504 712.481 280.4 712.481Z" fill="black"/></svg>