<svg width="346" height="721" viewBox="0 0 346 721" fill="none" xmlns="http://www.w3.org/2000/svg"><path xmlns="http://www.w3.org/2000/svg" d="M297.554 714.721C296.714 714.721 295.921 714.571 295.174 714.273C294.446 713.955 293.839 713.591 293.354 713.181V714.385H291.002V693.665H293.522V701.337C293.895 700.907 294.437 700.497 295.146 700.105C295.874 699.694 296.733 699.489 297.722 699.489C298.842 699.489 299.887 699.787 300.858 700.385C301.847 700.963 302.641 701.813 303.238 702.933C303.835 704.034 304.134 705.378 304.134 706.965C304.134 708.122 303.947 709.177 303.574 710.129C303.201 711.081 302.697 711.902 302.062 712.593C301.446 713.265 300.746 713.787 299.962 714.161C299.178 714.534 298.375 714.721 297.554 714.721ZM296.882 712.481C297.797 712.481 298.599 712.257 299.29 711.809C299.999 711.361 300.55 710.726 300.942 709.905C301.353 709.083 301.558 708.131 301.558 707.049C301.558 705.929 301.353 704.967 300.942 704.165C300.55 703.362 300.018 702.746 299.346 702.317C298.693 701.887 297.965 701.673 297.162 701.673C296.359 701.673 295.631 701.878 294.978 702.289C294.343 702.681 293.858 703.11 293.522 703.577V711.361C293.951 711.697 294.455 711.967 295.034 712.173C295.613 712.378 296.229 712.481 296.882 712.481Z" fill="black"/></svg>