<svg width="346" height="721" viewBox="0 0 346 721" fill="none" xmlns="http://www.w3.org/2000/svg"><path xmlns="http://www.w3.org/2000/svg" d="M319.975 720.881C319.116 720.881 318.276 720.778 317.455 720.573C316.652 720.367 315.934 720.059 315.299 719.649L316.223 717.465C316.671 717.819 317.194 718.109 317.791 718.333C318.388 718.575 319.116 718.697 319.975 718.697C321.3 718.697 322.336 718.342 323.083 717.633C323.848 716.942 324.231 715.831 324.231 714.301V712.509C323.858 712.957 323.316 713.386 322.607 713.797C321.916 714.189 321.086 714.385 320.115 714.385C319.014 714.385 317.968 714.105 316.979 713.545C315.99 712.966 315.187 712.126 314.571 711.025C313.955 709.923 313.647 708.598 313.647 707.049C313.647 705.593 313.946 704.295 314.543 703.157C315.159 702.018 315.98 701.122 317.007 700.469C318.034 699.815 319.163 699.489 320.395 699.489C321.216 699.489 321.963 699.629 322.635 699.909C323.307 700.189 323.886 700.534 324.371 700.945V699.825H326.667V714.049C326.667 715.654 326.387 716.961 325.827 717.969C325.267 718.977 324.483 719.714 323.475 720.181C322.486 720.647 321.319 720.881 319.975 720.881ZM320.675 712.145C321.422 712.145 322.094 711.977 322.691 711.641C323.288 711.305 323.774 710.913 324.147 710.465V702.849C323.736 702.55 323.242 702.279 322.663 702.037C322.084 701.794 321.412 701.673 320.647 701.673C319.882 701.673 319.163 701.878 318.491 702.289C317.819 702.699 317.268 703.297 316.839 704.081C316.428 704.846 316.223 705.789 316.223 706.909C316.223 707.973 316.428 708.897 316.839 709.681C317.268 710.465 317.819 711.071 318.491 711.501C319.163 711.93 319.891 712.145 320.675 712.145Z" fill="black"/></svg>